<?xml version="1.0" encoding="UTF-8"?>
<svg width="350px" height="346px" viewBox="0 0 350 346" version="1.1" xmlns="http://www.w3.org/2000/svg" xmlns:xlink="http://www.w3.org/1999/xlink">
    <title>Group 5</title>
    <g id="Page-1" stroke="none" stroke-width="1" fill="none" fill-rule="evenodd">
        <g id="Home" transform="translate(-810.000000, -131.000000)">
            <g id="Group-5" transform="translate(810.000000, 131.000000)">
                <rect id="Rectangle-Copy-2" fill="#C5B094" x="0" y="0" width="350" height="306" rx="3"></rect>
                <text id="Books-Reviews" font-family="Copperplate-Light, Copperplate" font-size="35" font-weight="300" letter-spacing="-3.7625" fill="#FFFFFF">
                    <tspan x="26" y="52">Books Reviews</tspan>
                </text>
                <text id="Join-our-book-review" font-family="Montserrat-Regular, Montserrat" font-size="17" font-weight="normal" line-spacing="23" fill="#FFFFFF">
                    <tspan x="22" y="88.5">Join our book reviews community, </tspan>
                    <tspan x="22" y="111.5">browse book recommendations and </tspan>
                    <tspan x="22" y="134.5">ask questions</tspan>
                </text>
                <g id="undraw_inspiration_re_ivlv" transform="translate(61.000000, 153.000000)" fill-rule="nonzero">
                    <path d="M14.15745,81 C9.65432182,81.0050889 6.00508158,84.6608442 6,89.1720137 L6,123.827983 C6.00508158,128.339153 9.6543213,131.994909 14.15745,132 L67.84255,132 C72.3456787,131.994909 75.9949184,128.339153 76,123.827983 L76,89.1720137 C75.9949184,84.6608442 72.3456782,81.0050889 67.84255,81 L14.15745,81 Z" id="Path" fill="#FFFFFF"></path>
                    <path d="M68.4807356,133 L14.5192644,133 C9.81639433,132.994698 6.00528228,129.16967 6,124.449627 L6,89.5503696 C6.00528228,84.8303274 9.81639484,81.0052998 14.5192644,81 L68.4807356,81 C73.1836052,81.0052998 76.9947177,84.8303274 77,89.5503696 L77,124.449627 C76.9947177,129.16967 73.1836057,132.994698 68.4807356,133 L68.4807356,133 Z M14.5192644,81.6419753 C10.1695134,81.6469247 6.64457284,85.1847353 6.63963964,89.5503696 L6.63963964,124.449627 C6.64457283,128.815262 10.1695129,132.353073 14.5192644,132.358025 L68.4807356,132.358025 C72.8304871,132.353073 76.3554272,128.815262 76.3603604,124.449627 L76.3603604,89.5503696 C76.3554272,85.1847353 72.8304866,81.6469247 68.4807356,81.6419753 L14.5192644,81.6419753 Z" id="Shape" fill="#3F3D56"></path>
                    <path d="M36,97.710377 C35.1118063,98.6365409 34.2609149,99.5999986 33.4597183,100.600792 C31.6958034,102.726621 29.9567535,104.871119 28.2114898,107.009396 C27.1245776,108.339571 26.0376686,109.669787 24.9631905,111 C24.6219625,110.780659 24.2980459,110.535449 23.9942903,110.266528 C20.4245646,107.165735 19.9856522,101.778175 23.0063378,98.139612 C26.0270235,94.5010491 31.3995484,93.9458327 35.0994106,96.8898696 C35.419977,97.1401036 35.7210434,97.4143986 36,97.710377 L36,97.710377 Z" id="Path" fill="#FFA763"></path>
                    <path d="M69,97.3924315 L69,98.6873396 L68.4222015,98.4752703 L60.2912922,95.4998736 C54.6579748,99.5167202 52.488123,97.6234007 52.2663126,92.7301199 C52.1540271,90.253086 47.3614451,92.0810592 44.9988911,92.8233018 C44.1536136,94.6338693 42.9374343,96.4090372 39.3364655,96.3417245 C38.3530524,96.3233387 37.9144391,97.6944696 37.2371309,98.4045805 C37.0156414,98.639142 36.794152,98.8737035 36.5758725,99.108265 C35.9210342,99.8215891 34.6423372,100.342184 34.6883973,101.306074 C34.8324875,104.321443 34.273079,107.021397 29.4240107,107.73563 C27.7177524,107.986955 25.8762796,110.047629 26.162659,111.739242 C27.2972949,118.441596 20.8937496,121.495346 15.4220264,125 C14.9427052,124.99462 14.4655807,124.934247 14,124.820062 C17.6305008,120.305557 21.2781215,115.802832 24.9428621,111.31189 C25.0263219,111.209068 25.1097817,111.106247 25.1932415,111.003425 C25.6233804,110.466826 26.0631493,109.927013 26.4997082,109.39043 C28.3261935,107.150836 30.1537489,104.913398 31.9823742,102.678115 C33.3113108,101.05225 34.6306175,99.4199587 36.0622738,97.8776365 C36.1489436,97.7780282 36.2388234,97.681633 36.3319132,97.5820247 C36.4699428,97.4342188 36.6079725,97.2896261 36.7492121,97.1386071 C39.8596942,93.9222225 43.7405743,91.0785658 48.3886425,91.0014497 C51.1235555,90.9596785 53.7653788,91.8272348 56.3077084,92.7430047 C59.0458314,93.7358746 61.7743244,94.7448104 64.5092375,95.7473199 L69,97.3924315 Z" id="Path" fill="#3F3D56"></path>
                    <path d="M66,104.888352 L66,105.878584 L65.5587765,105.716405 L59.349717,103.441103 C55.0479119,106.512806 53.3909281,105.064979 53.2215517,101.32306 C53.1358067,99.4288724 49.4760087,100.826721 47.6718801,101.394326 C47.0263956,102.778875 46.097671,104.136357 43.3478434,104.08487 C42.5968739,104.07081 42.2619323,105.119324 41.7447188,105.662354 C41.5755723,105.841722 41.4064447,106.021086 41.2397582,106.200466 C40.7397051,106.745943 39.7632415,107.14405 39.7984158,107.881136 C39.9084492,110.187005 39.4812646,112.251672 35.7783483,112.797854 C34.4753879,112.99004 33.0691694,114.565848 33.2878535,115.85944 C34.1543025,120.984766 29.2643211,123.319982 25.0859111,126 C24.7198841,125.995883 24.3555347,125.949714 24,125.862398 C26.7723837,122.410125 29.5578413,118.966871 32.3563728,115.532636 C32.4201109,115.454005 32.4838427,115.375375 32.5475682,115.296746 C32.8760432,114.88641 33.2118698,114.473618 33.5452333,114.063276 C34.9400064,112.350649 36.3355963,110.639667 37.7320031,108.930332 C38.7468317,107.687027 39.7542991,106.4388 40.8475683,105.259382 C40.9137433,105.183213 40.9823815,105.109501 41.0534671,105.033314 C41.1588703,104.92028 41.2642735,104.809708 41.3721272,104.694231 C43.7474229,102.234636 46.7109925,100.060088 50.2604201,100.001109 C52.3489038,99.9691655 54.3662924,100.632584 56.3077068,101.332889 C58.3986285,102.092134 60.4821922,102.863676 62.5706885,103.630299 L66,104.888352 Z" id="Path" fill="#3F3D56"></path>
                    <path d="M64,112.572261 L64,113.295891 L63.6848396,113.177375 L59.249796,111.514649 C56.1770776,113.759354 54.9935189,112.701326 54.872534,109.966848 C54.8112879,108.582634 52.1971472,109.604139 50.9084847,110.018928 C50.4474243,111.030714 49.7840481,112.022719 47.8198853,111.985105 C47.2834788,111.974831 47.0442403,112.741053 46.6747973,113.137883 C46.5539823,113.268959 46.4331705,113.400034 46.3141114,113.531119 C45.9569308,113.929734 45.2594545,114.220662 45.2845772,114.759294 C45.3631738,116.44435 45.0580416,117.953147 42.4131017,118.352279 C41.4824158,118.492725 40.4779729,119.644277 40.6341749,120.589594 C41.2530672,124.335023 37.7602262,126.041518 34.775645,128 C34.5141991,127.99699 34.2539516,127.963251 34,127.899445 C35.9802809,125.376639 37.9698968,122.860415 39.9688477,120.350774 L40.1054116,120.178391 C40.3400371,119.87853 40.5799238,119.576872 40.8180295,119.277011 C41.8142954,118.025475 42.8111486,116.775141 43.8085893,115.52601 C44.5334665,114.617441 45.2530857,113.705277 46.0339918,112.843392 C46.0812574,112.787731 46.1302788,112.733867 46.1810623,112.678202 C46.2563486,112.595592 46.3316381,112.514796 46.4086771,112.430408 C48.1053037,110.633019 50.2221537,109.043922 52.7574587,109.00081 C54.2492332,108.977467 55.6902243,109.462263 57.0769485,109.974028 C58.5704663,110.528862 60.0587323,111.092681 61.5505163,111.652904 L64,112.572261 Z" id="Path" fill="#3F3D56"></path>
                    <path d="M119.500196,62.9799979 L124,70.0511931 L120.450446,73 L115.950338,65.3668198 C115.690819,65.2735814 115.445525,65.1434171 115.221734,64.9801878 C114.396709,64.4415629 113.930197,63.4830111 114.008514,62.4873612 C114.08683,61.4917114 114.697214,60.6212162 115.595887,60.2235361 C116.494561,59.825856 117.535075,59.9657977 118.301867,60.5874708 C119.064526,61.1340918 119.51305,62.0295934 119.500196,62.9799979 L119.500196,62.9799979 Z" id="Path" fill="#FFB6B6"></path>
                    <polygon id="Path" fill="#FFB6B6" points="183 184.124605 180.238681 186 172 175.767767 176.075006 173"></polygon>
                    <path d="M185,186.437769 L176.692206,192 L176.623906,191.891832 C175.462759,190.053008 175.96903,187.593149 177.754745,186.397335 L177.754945,186.397202 L178.52378,184.195754 L182.103829,183.485559 L182.829041,183 L185,186.437769 Z" id="Path" fill="#2F2E41"></path>
                    <polygon id="Path" fill="#FFB6B6" points="134.999353 189 131.611683 188.999678 130 176 135 176.000322"></polygon>
                    <path d="M134.999848,192 L125,191.999576 L125,191.859197 C125.000151,189.472915 126.742672,187.538503 128.892209,187.538366 L128.892451,187.538366 L130.719046,186 L134.127073,187.53861 L135,187.538634 L134.999848,192 Z" id="Path" fill="#2F2E41"></path>
                    <path d="M169.31021,110 L139.408952,110.653657 L136.445096,114.337135 C136.445096,114.337135 132.949542,116.150077 132.721414,117.576476 C132.493287,119.002876 130.476579,144.331198 131.567016,145.285012 C132.657453,146.238826 129.499328,152.824324 129.267391,153.225961 C129.035453,153.627597 126.535472,173.450719 129.267391,175.080731 L130.293647,182 L135.068781,182 C135.068781,182 139.85234,176.496116 138.889672,175.498386 C137.927005,174.500657 140.680329,171.182945 140.785595,169.403885 C140.890861,167.624826 141.896152,159.555659 141.117263,158.261861 C140.338375,156.968063 139.285436,152.112632 141.261342,150.230287 C143.237248,148.347941 152.452666,125.216777 152.452666,125.216777 C152.452666,125.216777 155.130616,152.334467 155.124326,154.463746 C155.116144,157.232822 156.945091,155.862353 156.945091,158.293328 C156.945091,158.784458 162.90049,171.40759 166.902992,175.353308 L175.179892,181.683479 L179,178.834902 L179,174.720291 C179,174.720291 175.459807,167.085878 174.224865,165.858053 C172.989923,164.630228 168.430038,160.871778 168.430038,159.15282 C168.430038,157.433862 166.283478,156.834997 167.72724,154.555993 C169.171002,152.276989 168.677027,151.294727 168.183053,150.312465 C167.689078,149.330203 173.369804,118.388966 173.369804,118.388966 L169.31021,110 Z" id="Path" fill="#2F2E41"></path>
                    <path d="M164.273564,52.6273233 L151.413267,52 L148.122356,57.4811985 C148.122356,57.4811985 138.510347,58.4606429 139.884875,62.1309627 C141.259402,65.8012826 142.452715,87.5945787 140.509483,90.7418733 C138.566252,93.889168 135.584182,91.2802092 138.176955,97.4317094 C140.769728,103.58321 135,114.406464 135,114.406464 L151.787155,118 C151.787155,118 165.252887,114.022956 167.701205,111.537303 C170.149522,109.051651 172.353001,107.063127 170.884013,106.317432 C169.415025,105.571736 165.252887,105.074604 167.456372,101.594689 C169.659858,98.1147748 169.92925,98.2756672 169.916969,95.9581344 C169.904687,93.6406017 168.616911,87.8978906 168.616911,87.8978906 C168.616911,87.8978906 177.067696,63.5636098 174.52193,62.6447804 C171.976163,61.7259509 164.869254,57.4811985 164.869254,57.4811985 L164.273564,52.6273233 Z" id="Path" fill="#E6E6E6"></path>
                    <path d="M146.830848,60.2603795 C146.830848,60.2603795 139.349211,56.6766862 138.245558,61.5951047 C137.141906,66.5135232 132.881438,78.8521422 132.881438,78.8521422 C132.881438,78.8521422 128.161967,76.0981787 128.907787,74.5966113 C129.653608,73.0950438 125.615341,72.8668896 126.920965,70.3410803 C128.226589,67.8152709 122.202236,65.3345962 122.202236,65.3345962 L115,68.3384989 C115,68.3384989 117.788824,72.55147 119.641728,74.4089294 C121.494633,76.2663889 118.726436,76.598086 120.960473,78.8521648 C123.194509,81.1062437 127.692803,89.5386194 127.692803,89.5386194 L133.549899,92 L150,81.8708317 L146.830848,60.2603795 Z" id="Path" fill="#E6E6E6"></path>
                    <circle id="Oval" fill="#FFB6B6" cx="157" cy="40" r="9"></circle>
                    <path d="M163.026673,43.0249195 C163.445776,42.800723 163.979971,43.1924504 164.080243,43.6756291 C164.139092,44.1724803 164.000666,44.6728795 163.69757,45.0589594 C163.396202,45.4385123 163.126132,45.844387 162.890291,46.2721782 C162.655351,46.713995 162.685252,47.2590086 162.96695,47.6694672 C163.273911,47.9836421 163.725423,48.083834 164.126885,47.9268598 C164.518431,47.7659102 164.864602,47.5028144 165.132816,47.1623349 C166.820064,45.2369102 168.580134,42.0405022 167.717582,39.5841519 C167.645992,39.3216104 167.617545,39.0481394 167.633469,38.7755269 C167.616955,38.4630156 167.561899,37.9921799 167.841781,37.8858934 C168.622842,37.5892868 166.431299,32.7873209 163.048825,31.7426271 C163.213571,30.1030293 155.076062,27.7445799 155.520264,29.8030082 C155.60004,30.1726562 154.814252,29.9717493 154.454399,29.9922295 C151.693463,30.1493829 148.575385,30.8791418 148.826794,34.2449941 C148.92415,35.5483919 148.411544,35.2477298 148,36.4813995 C148.641137,36.883439 148.851502,37.7650628 149.345756,37.1767194 C149.840011,36.588376 150.262161,35.8515364 150.970654,35.6044362 C151.725045,35.3413266 152.543541,35.7349117 153.18696,36.2256617 C153.83038,36.7164117 154.420681,37.3261413 155.176957,37.5831938 C156.025169,37.8714932 156.950009,37.6709264 157.83448,37.7876035 C159.091804,37.9534598 160.208297,38.7616238 161.039254,39.7678819 C161.831268,40.810118 162.499719,41.9498844 163.02986,43.1620343" id="Path" fill="#2F2E41"></path>
                    <path d="M196.623399,192.885701 L96.3763075,193 C96.1681267,192.998588 96,192.800732 96,192.557151 C96,192.31357 96.1681267,192.115714 96.3763075,192.114302 L196.623399,192 C196.831695,192.001223 197,192.199136 197,192.442851 C197,192.686566 196.831695,192.884478 196.623399,192.885701 L196.623399,192.885701 Z" id="Path" fill="#CACACA"></path>
                    <path d="M165.15745,113 C160.654322,113.005089 157.005082,116.660844 157,121.172014 L157,155.827983 C157.005082,160.339153 160.654321,163.994909 165.15745,164 L218.84255,164 C223.345679,163.994909 226.994918,160.339153 227,155.827983 L227,121.172014 C226.994918,116.660844 223.345678,113.005089 218.84255,113 L165.15745,113 Z" id="Path" fill="#FFFFFF"></path>
                    <path d="M219.480736,165 L165.519264,165 C160.816394,164.994698 157.005282,161.16967 157,156.449627 L157,121.55037 C157.005282,116.830327 160.816395,113.0053 165.519264,113 L219.480736,113 C224.183605,113.0053 227.994718,116.830327 228,121.55037 L228,156.449627 C227.994718,161.16967 224.183606,164.994698 219.480736,165 L219.480736,165 Z M165.519264,113.641975 C161.169513,113.646925 157.644573,117.184735 157.63964,121.55037 L157.63964,156.449627 C157.644573,160.815262 161.169513,164.353073 165.519264,164.358025 L219.480736,164.358025 C223.830487,164.353073 227.355427,160.815262 227.36036,156.449627 L227.36036,121.55037 C227.355427,117.184735 223.830487,113.646925 219.480736,113.641975 L165.519264,113.641975 Z" id="Shape" fill="#3F3D56"></path>
                    <ellipse id="Oval" fill="#E6E6E6" transform="translate(186.858558, 147.688254) rotate(-81.721740) translate(-186.858558, -147.688254) " cx="186.858558" cy="147.688254" rx="1.67419354" ry="2.40631795"></ellipse>
                    <ellipse id="Oval" fill="#3F3D56" transform="translate(202.516529, 146.160161) rotate(-81.721740) translate(-202.516529, -146.160161) " cx="202.516529" cy="146.160161" rx="1.67419036" ry="2.40631795"></ellipse>
                    <ellipse id="Oval" fill="#FF6584" transform="translate(182.570943, 135.010076) rotate(-81.721740) translate(-182.570943, -135.010076) " cx="182.570943" cy="135.010076" rx="1.67419354" ry="2.40631795"></ellipse>
                    <ellipse id="Oval" fill="#E6E6E6" transform="translate(177.090483, 130.155424) rotate(-89.566750) translate(-177.090483, -130.155424) " cx="177.090483" cy="130.155424" rx="1.52100878" ry="1.05793911"></ellipse>
                    <ellipse id="Oval" fill="#3F3D56" transform="translate(174.783183, 120.482620) rotate(-89.566750) translate(-174.783183, -120.482620) " cx="174.783183" cy="120.48262" rx="1.52100878" ry="1.05793911"></ellipse>
                    <ellipse id="Oval" fill="#E6E6E6" transform="translate(192.725500, 137.506080) rotate(-89.566750) translate(-192.725500, -137.506080) " cx="192.7255" cy="137.50608" rx="1.52100878" ry="1.05793911"></ellipse>
                    <ellipse id="Oval" fill="#FF6584" transform="translate(185.158891, 141.284549) rotate(-89.566750) translate(-185.158891, -141.284549) " cx="185.158891" cy="141.284549" rx="1.52100878" ry="1.05793911"></ellipse>
                    <ellipse id="Oval" fill="#3F3D56" transform="translate(195.691873, 148.268137) rotate(-89.566750) translate(-195.691873, -148.268137) " cx="195.691873" cy="148.268137" rx="1.52100878" ry="1.05793911"></ellipse>
                    <ellipse id="Oval" fill="#E6E6E6" cx="200.5" cy="141.5" rx="1.5" ry="2.5"></ellipse>
                    <ellipse id="Oval" fill="#3F3D56" cx="196.5" cy="126.5" rx="1.5" ry="2.5"></ellipse>
                    <ellipse id="Oval" fill="#FF6584" cx="188.5" cy="147.5" rx="1.5" ry="2.5"></ellipse>
                    <ellipse id="Oval" fill="#E6E6E6" transform="translate(184.323713, 153.977438) rotate(-7.844980) translate(-184.323713, -153.977438) " cx="184.323713" cy="153.977438" rx="1.52079276" ry="1.05808939"></ellipse>
                    <ellipse id="Oval" fill="#3F3D56" transform="translate(175.085278, 157.653718) rotate(-7.844980) translate(-175.085278, -157.653718) " cx="175.085278" cy="157.653718" rx="1.52079276" ry="1.05808939"></ellipse>
                    <ellipse id="Oval" fill="#E6E6E6" transform="translate(189.345593, 137.444743) rotate(-7.844980) translate(-189.345593, -137.444743) " cx="189.345593" cy="137.444743" rx="1.52079276" ry="1.05808939"></ellipse>
                    <ellipse id="Oval" fill="#FF6584" transform="translate(194.173592, 144.389570) rotate(-7.844980) translate(-194.173592, -144.389570) " cx="194.173592" cy="144.38957" rx="1.52079276" ry="1.05808939"></ellipse>
                    <ellipse id="Oval" fill="#3F3D56" transform="translate(199.566873, 132.959324) rotate(-7.844980) translate(-199.566873, -132.959324) " cx="199.566873" cy="132.959324" rx="1.52079276" ry="1.05808939"></ellipse>
                    <path d="M61.15745,12 C56.6543218,12.0050889 53.0050816,15.6608442 53,20.1720137 L53,54.8279831 C53.0050816,59.3391531 56.6543213,62.9949094 61.15745,63 L114.84255,63 C119.345679,62.9949094 122.994918,59.3391531 123,54.8279831 L123,20.1720137 C122.994918,15.6608442 119.345678,12.0050889 114.84255,12 L61.15745,12 Z" id="Path" fill="#FFFFFF"></path>
                    <path d="M114.480736,63 L60.5192644,63 C55.8164184,62.9946402 52.0053403,59.1696458 52,54.4496272 L52,19.5503696 C52.0053421,14.8303522 55.8164197,11.0053598 60.5192644,11 L114.480736,11 C119.18358,11.0053598 122.994658,14.8303522 123,19.5503696 L123,54.4496272 C122.99466,59.1696458 119.183582,62.9946402 114.480736,63 L114.480736,63 Z M60.5192644,11.6419753 C56.1694907,11.64687 52.6445183,15.1847126 52.6396396,19.5503696 L52.6396396,54.4496272 C52.6445183,58.8152847 56.1694902,62.3531282 60.5192644,62.3580247 L114.480736,62.3580247 C118.83051,62.3531282 122.355482,58.8152847 122.36036,54.4496272 L122.36036,19.5503696 C122.355482,15.1847126 118.830509,11.64687 114.480736,11.6419753 L60.5192644,11.6419753 Z" id="Shape" fill="#3F3D56"></path>
                    <path d="M82.5920659,45.7860281 C81.2269603,44.4437359 79.36985,43.6983433 77.4394915,43.7179276 L77.3631724,43.7181278 C76.0599472,43.7186182 74.7799743,43.3786986 73.6541687,42.7331357 L73.5370174,42.6660109 L73.6313822,42.5704052 C74.1422066,42.0506879 74.5687469,41.4568339 74.8960574,40.8096514 C74.4254461,41.2411158 73.7842981,41.4447934 73.1459401,41.3656224 C72.4714817,41.2865554 71.8709183,40.9082774 71.5158406,40.3388687 C70.8243117,39.2355008 70,37.6699085 70,36.4772273 C70.0021767,34.4388645 70.8759691,32.4953711 72.4076942,31.1220221 C73.377658,30.2619621 73.9296766,29.036678 73.9258099,27.7523477 L73.9254254,27.6619761 C73.9252962,26.8259156 74.0291918,25.9929802 74.2347964,25.1817358 L74.2556729,25.0998176 L74.3413801,25.1027604 C74.8940934,25.1212551 75.4470991,25.075697 75.9889791,24.9670266 C75.4806963,24.9057153 74.9834604,24.7756616 74.5113659,24.580552 L74.4191599,24.5438689 L74.4504522,24.4509549 C76.6075336,23.1375717 81.4766874,23.8177087 84.3028893,17.4590093 C86.5945505,12.3029667 94.680321,22.0360312 94.680321,27.6619761 C94.680321,28.2360361 94.1025954,28.9946464 94.5350768,29.3740723 C99.2102658,33.4756939 95.9844517,36.1094995 94.9674064,38.7597383 C94.7261008,39.3885417 95.2493243,40.078845 95.2493243,40.7591314 C95.2493243,40.8745611 95.2463286,40.9937155 95.2404211,41.1132734 L95.2314144,41.2970897 L95.0755284,41.1950931 C94.7671563,40.9964309 94.4813064,40.7658636 94.2228684,40.5073354 C94.7659151,41.7362548 94.7134376,43.1409643 94.0801579,44.3273868 C93.7305066,45.0491381 93.2535207,45.7042251 92.6713373,46.2622451 C89.7129402,48.7518373 85.2941247,48.5430608 82.5920659,45.7860281 L82.5920659,45.7860281 Z" id="Path" fill="#FFA763"></path>
                    <path d="M89.5793221,60 C89.6473798,60 89.7050323,59.9516903 89.7146229,59.8868141 C90.0724416,56.8144852 90.0938359,53.7144495 89.778453,50.6378133 C89.3061626,45.7843302 87.7894421,38.7936008 83.2459428,33.0522315 C83.2163721,33.0146224 83.1681765,32.9951037 83.1195772,33.001055 C83.0709779,33.0070063 83.0293907,33.0375195 83.0105386,33.0810583 C82.9916864,33.1245972 82.9984458,33.1745182 83.0282614,33.2119477 C87.5324988,38.9037417 89.037007,45.8431723 89.5059713,50.6623887 C89.8196488,53.7184563 89.7987694,56.7978092 89.4436774,59.8496728 C89.4381259,59.8874968 89.449881,59.9257802 89.475901,59.9546166 C89.501921,59.983453 89.5396489,60 89.5793221,60 L89.5793221,60 Z" id="Path" fill="#3F3D56"></path>
                    <path d="M85.8700582,41 C85.926319,41.0000408 85.9762063,40.9664367 85.9936175,40.9167704 C86.0110287,40.867104 85.9920014,40.8126785 85.9464913,40.7819707 C84.7181421,40.0100804 83.3911774,39.3829739 81.9961344,38.9150825 C79.816651,38.1743238 76.5024226,37.5027724 73.0904846,38.5108804 C73.022165,38.5310645 72.9844061,38.5988434 73.0061478,38.6622687 C73.0278894,38.725694 73.1008985,38.7607479 73.1692181,38.7405638 C76.5112563,37.7531728 79.7654073,38.413617 81.9068531,39.1414685 C83.2794683,39.6013376 84.58515,40.2178995 85.7938373,40.9769593 C85.8159737,40.9919414 85.8426636,41 85.8700582,41 L85.8700582,41 Z" id="Path" fill="#3F3D56"></path>
                    <path d="M91.9996448,26.1415647 C92.0038352,26.0845386 91.9706251,26.0313173 91.9173933,26.0097514 C91.8641615,25.9881855 91.8030243,26.0031836 91.7659744,26.0468973 C90.828429,27.2311199 90.0425367,28.5267171 89.4263838,29.9038724 C88.4530326,32.0546352 87.4721655,35.3610485 88.3275908,38.8989205 C88.3386702,38.9447468 88.3734836,38.9812119 88.4189172,38.9945798 C88.4643509,39.0079478 88.5135022,38.9961876 88.5478564,38.9637292 C88.5822106,38.9312708 88.5965485,38.8830455 88.5854691,38.8372192 C87.7476357,35.3718355 88.7118981,32.1254393 89.6682821,30.0122215 C90.2739866,28.657168 91.0467428,27.3823124 91.9687593,26.2170056 C91.9868291,26.1957491 91.9976443,26.1693319 91.9996448,26.1415647 L91.9996448,26.1415647 Z" id="Path" fill="#3F3D56"></path>
                    <path d="M104.014468,22.1919017 C102.366877,15.1685039 102.641635,8.25087647 105.462914,1.47337083 C105.524929,0.600311183 106.271533,-0.0570469677 107.131864,0.00392019069 L122.548354,1.11418397 C123.408541,1.17712855 124.056206,1.93489725 123.996138,2.80809234 L122.547689,23.5266264 C122.485678,24.3996837 121.73908,25.0570436 120.878752,24.9960803 L105.462268,23.8858165 C104.602073,23.822877 103.9544,23.0651039 104.014468,22.1919017 L104.014468,22.1919017 Z" id="Path" fill="#F2F2F2"></path>
                    <path d="M105.667441,15.4624483 C104.331191,12.0572997 105.185569,7.37408399 106.611134,2.35759488 C106.669978,1.55313338 107.37859,0.947422438 108.195137,1.00361398 L121.622158,1.94239663 C122.43859,2.00037259 123.053329,2.69860073 122.996337,3.50320571 L121.690112,21.6424093 C121.631243,22.4468866 120.922601,23.0525926 120.106038,22.9963839 L111.788276,22.4148299 C108.151669,22.1565217 105.413513,19.0463735 105.667441,15.4624483 Z" id="Path" fill="#FFFFFF"></path>
                    <circle id="Oval" fill="#FFA763" cx="112.5" cy="17.5" r="1.5"></circle>
                    <path d="M117.88892,6.0717183 C117.57753,5.35767723 116.669337,5.18083559 115.898483,5.09952917 C115.107873,4.98060677 114.305037,4.96819423 113.511168,5.06261923 C112.709127,5.16224417 111.979846,5.57996758 111.485349,6.22298443 C110.924992,7.03306207 110.949641,8.10543399 111.071197,9.084676 C111.305653,10.9684633 111.815142,12.807136 112.583199,14.5412834 L113.096401,15 C115.690619,13.1659545 117.439195,10.3561881 117.945902,7.20739075 C118.03396,6.83102157 118.014203,6.43725425 117.88892,6.0717183 Z" id="Path" fill="#FFA763"></path>
                    <path d="M1.01446836,139.191902 C-0.633122872,132.168504 -0.358365022,125.250876 2.46291402,118.473371 C2.52492924,117.600311 3.27153312,116.942953 4.13186352,117.00392 L19.5483536,118.114184 C20.4085411,118.177129 21.0562062,118.934897 20.9961376,119.808092 L19.5476887,140.526626 C19.4856784,141.399684 18.7390799,142.057044 17.878752,141.99608 L2.46226826,140.885817 C1.60207343,140.822877 0.954399846,140.065104 1.01446836,139.191902 L1.01446836,139.191902 Z" id="Path" fill="#F2F2F2"></path>
                    <path d="M2.66744108,132.462448 C1.33119064,129.0573 2.18556918,124.374084 3.61113387,119.357595 C3.66997769,118.553133 4.37859026,117.947422 5.19513675,118.003614 L18.6221581,118.942397 C19.4385904,119.000373 20.0533294,119.698601 19.9963367,120.503206 L18.6901125,138.642409 C18.6312435,139.446887 17.9226014,140.052593 17.1060383,139.996384 L8.78827615,139.41483 C5.15166914,139.156522 2.41351325,136.046373 2.66744108,132.462448 Z" id="Path" fill="#FFFFFF"></path>
                    <path d="M16.2693688,124.052551 C13.1465373,125.54085 10.6791136,126.919726 9.3820165,130.03179 C8.54640376,128.167817 7.71079101,127.545364 6.87517506,125.681412 C6.62938189,125.133123 5.8003238,125.606696 6.04449434,126.15135 C7.03359741,128.357729 8.02271223,130.564102 9.01183881,132.770471 C9.18631001,133.15968 9.78202365,133.007513 9.89100282,132.659251 C10.9727373,129.255301 13.4554959,126.43298 16.7549264,124.856561 C17.3103148,124.591861 16.8233911,123.788512 16.2693688,124.052551 Z" id="Path" fill="#FFA763"></path>
                    <path d="M162.014468,136.191902 C160.366877,129.168504 160.641635,122.250876 163.462914,115.473371 C163.524929,114.600311 164.271533,113.942953 165.131864,114.00392 L180.548354,115.114184 C181.408541,115.177129 182.056206,115.934897 181.996138,116.808092 L180.547689,137.526626 C180.485678,138.399684 179.73908,139.057044 178.878752,138.99608 L163.462268,137.885817 C162.602073,137.822877 161.9544,137.065104 162.014468,136.191902 L162.014468,136.191902 Z" id="Path" fill="#F2F2F2"></path>
                    <path d="M163.667441,129.462448 C162.331191,126.0573 163.185569,121.374084 164.611134,116.357595 C164.669978,115.553133 165.37859,114.947422 166.195137,115.003614 L179.622158,115.942397 C180.43859,116.000373 181.053329,116.698601 180.996337,117.503206 L179.690112,135.642409 C179.631243,136.446887 178.922601,137.052593 178.106038,136.996384 L169.788276,136.41483 C166.151669,136.156522 163.413513,133.046373 163.667441,129.462448 L163.667441,129.462448 Z" id="Path" fill="#FFFFFF"></path>
                    <path d="M177.269369,121.052551 C174.146537,122.54085 171.679114,123.919726 170.382017,127.03179 C169.546404,125.167817 168.710791,124.545364 167.875175,122.681412 C167.629382,122.133123 166.800324,122.606696 167.044494,123.15135 C168.033595,125.357729 169.02271,127.564102 170.011839,129.770471 C170.18631,130.15968 170.782024,130.007513 170.891003,129.659251 C171.972737,126.255301 174.455496,123.43298 177.754926,121.856561 C178.310315,121.591861 177.823391,120.788512 177.269369,121.052551 Z" id="Path" fill="#FFA763"></path>
                    <path d="M167.594989,111.851463 L171.769891,105 L176,106.849021 L171.329374,113.935093 C171.522558,115.310719 170.640479,116.607665 169.294261,116.927379 C167.948042,117.247093 166.580935,116.484307 166.140101,115.167496 C165.699267,113.850685 166.329853,112.413417 167.594976,111.851463 L167.594989,111.851463 Z" id="Path" fill="#FFB6B6"></path>
                    <path d="M167.859032,64.1878547 C167.859032,64.1878547 173.872266,62.0348871 174.629885,63.5259689 C175.387504,65.0170506 179.456008,92.2263726 178.936995,93.6567943 C178.417982,95.087216 175.134967,91.110997 178.417985,95.087216 C181.701004,99.063435 181.195925,98.0693826 180.438306,98.8149235 C179.680686,99.5604644 176.555886,110 176.555886,110 L167.859032,108.872875 L170.841788,92.6020723 L167,72.2779294 L167.859032,64.1878547 Z" id="Path" fill="#E6E6E6"></path>
                </g>
            </g>
        </g>
    </g>
</svg>